<svg xmlns="http://www.w3.org/2000/svg" viewBox="0 0 39.27 58.02"><defs><style>.cls-1{fill:#1a1a1a}</style></defs><title>icon_climat</title><g id="Слой_2" data-name="Слой 2"><g id="icons"><path class="cls-1" d="M8.69 13.07a2.82 2.82 0 0 0 .53 2.42 3.14 3.14 0 0 0 2.49 1.18h5.62L18.63 27a1 1 0 0 0 1 .87 1 1 0 0 0 1-.89l1-10.28h5.93a3.15 3.15 0 0 0 2.49-1.18 2.82 2.82 0 0 0 .53-2.42l-1.49-6.29a3 3 0 0 0-2.94-2.29 36.87 36.87 0 0 0-13 0 3 3 0 0 0-2.94 2.29zm10 2.1h-7a1.64 1.64 0 0 1-1.31-.61 1.5 1.5 0 0 1-.24-.47h8.58zm1.5-9.71a35.26 35.26 0 0 1 5.7.55h.14a1.6 1.6 0 0 1 1.54 1.09h-7.33zm0 3.15H28l.3 1.24h-8zm0 2.74h8.34V11l.47 1.59h-8.76zm0 2.74h8.9a1.5 1.5 0 0 1-.24.47 1.64 1.64 0 0 1-1.31.61h-7.3zm-.08 2.58l-.59 5.78-.73-5.78zM13.22 6h.14a34.78 34.78 0 0 1 5.38-.54v1.65h-7.06A1.6 1.6 0 0 1 13.22 6zm-1.91 2.61h7.43v1.24H11zm-.59 2.44v.3h8v1.24h-8.37z"/><path class="cls-1" d="M39.27 50.83a2.62 2.62 0 0 0-2.62-2.62h-2c.11-1.85.24-3.69.38-5.51a111.29 111.29 0 0 0 .5-13.47 126.59 126.59 0 0 0-2.31-19.59c0-.22-.09-.44-.14-.74-.64-3.33-1.7-8.9-13.59-8.9C8.23 0 6.87 6 6.14 9.22l-.09.4a103.64 103.64 0 0 0-2.25 18.7 118.89 118.89 0 0 0 .49 13.93c.16 2.17.28 4.12.38 6h-2a2.62 2.62 0 0 0-1.92 4.41 3.46 3.46 0 0 0-.52 1.82 3.54 3.54 0 1 0 7.07 0 3.47 3.47 0 0 0-.18-1.1C11 55 18.68 55 19.64 55s8.64 0 12.51-1.61a3.37 3.37 0 0 0-.15 1.09 3.54 3.54 0 1 0 7.07 0 3.37 3.37 0 0 0-.52-1.82 2.6 2.6 0 0 0 .72-1.83zm-6-14c-.37.76-5.26 2.11-13.66 2.11S6.35 37.57 6 36.87v-1.38c2.39 1 7.41 1.39 11 1.5h4.91c1.61 0 3.66-.11 5.67-.3a23.1 23.1 0 0 0 6-1.16v1.26h-.1zM13.9 52.73c-.73-.07-1.41-.15-2-.24a19.92 19.92 0 0 1-4.09-1 2.72 2.72 0 0 1-.38-.16 1.2 1.2 0 0 1-.62-.33c-.09-3-.31-5.94-.52-8.84-.09-1.18-.17-2.34-.25-3.48a13 13 0 0 0 3 .91 37 37 0 0 0 3.68.54c2.5.25 4.91.32 6.17.34V53c-1.89 0-3.53-.12-4.99-.27zM33.29 38.6c-.09 1.3-.19 2.62-.29 4-.2 2.66-.41 5.39-.51 8.09a1.1 1.1 0 0 0 0 .18.43.43 0 0 1 0 .05 1.26 1.26 0 0 1-.6.45c-.11.06-.24.11-.38.17a10.31 10.31 0 0 1-1 .33 36 36 0 0 1-7.44 1c-.83 0-1.71.07-2.64.08V40.42c1.27 0 3.7-.09 6.22-.34a35.28 35.28 0 0 0 4.54-.74 11.57 11.57 0 0 0 2.1-.74zm4 12.23a.62.62 0 0 1-.62.62h-2.08a.59.59 0 0 1-.23-.05.64.64 0 0 1-.36-.4.42.42 0 0 1 0-.15.49.49 0 0 1 0-.12.6.6 0 0 1 .6-.54h2.06a.62.62 0 0 1 .61.64zM35.51 53A1.54 1.54 0 1 1 34 54.48 1.54 1.54 0 0 1 35.51 53zm-4.4-43.72l.15.77a125.52 125.52 0 0 1 2.25 19.28v4.57c-.56.55-4.1 1.28-9.64 1.54-1.27.06-2.66.09-4.13.09-8 0-13.23-1-13.82-1.66a.31.31 0 0 1 .06.2h-.17c-.07-1.93-.1-3.82 0-5.66A101.67 101.67 0 0 1 8 10.07l.09-.4C8.82 6.43 9.83 2 19.49 2c10.24 0 11 4 11.62 7.28zM3.77 53a1.54 1.54 0 1 1-1.54 1.53A1.54 1.54 0 0 1 3.77 53zm.91-2.74a.61.61 0 0 1 .24 0 .86.86 0 0 1 .2.13.65.65 0 0 1 .18.44.6.6 0 0 1 0 .24.86.86 0 0 1-.13.2.63.63 0 0 1-.44.18H2.62a.62.62 0 0 1-.62-.62.62.62 0 0 1 .62-.62z"/></g></g></svg>