<svg xmlns="http://www.w3.org/2000/svg" viewBox="0 0 50 50">
  <path d="M24.9844 0c-.3282.004-.6328.1719-.8164.4453l-5.4961 8.2422v.004c-.0703.1054-.6094.3241-.7305.3007L8.2266 7.0469c-.3282-.0625-.668.039-.9024.2773-.2383.2344-.3398.5742-.2773.9024l1.9453 9.7148c.0234.1211-.1992.6602-.3047.7305l-8.2422 5.496A.9975.9975 0 0 0 0 25c0 .336.168.6484.4453.832l8.2422 5.4961h.004c.1054.0703.3241.6094.3007.7305l-1.9453 9.7187c-.0625.3243.039.6641.2773.9024.2344.2344.5742.336.9024.2734l9.7148-1.9453c.125-.0234.6602.1992.7305.3047l5.496 8.2422A.9975.9975 0 0 0 25 50c.336 0 .6484-.168.832-.4453l5.4961-8.2422v-.004c.0703-.1054.6094-.3241.7305-.3007l9.7187 1.9453c.3243.0625.6641-.039.9024-.2773.2344-.2344.336-.5742.2734-.9024l-1.9453-9.7148c-.0234-.125.1953-.6602.3008-.7305h.0039l8.2422-5.496A.9975.9975 0 0 0 50 25a.9975.9975 0 0 0-.4453-.832l-8.2422-5.4961h-.004c-.1054-.0703-.3241-.6094-.3007-.7305l1.9453-9.7148a1.0127 1.0127 0 0 0-.2773-.9063c-.2344-.2344-.5742-.336-.9024-.2734l-9.7148 1.9453c-.125.0234-.6602-.1992-.7305-.3047L25.8321.4453A.9874.9874 0 0 0 24.9843 0zM25 2.8047l4.664 6.9922c.629.9453 1.6758 1.3789 2.7852 1.1562l8.2461-1.6484-1.6484 8.246c-.2227 1.1095.211 2.1563 1.1562 2.7852L47.1992 25l-6.996 4.664c-.9454.629-1.379 1.672-1.1563 2.7852l1.6484 8.2461-8.246-1.6484c-1.1095-.2227-2.1563.211-2.7852 1.1562L25 47.1992l-4.664-6.996c-.629-.9454-1.6758-1.379-2.7852-1.1563l-8.2461 1.6484 1.6484-8.246c.2227-1.1095-.211-2.1563-1.1562-2.7852L2.8047 25l6.9922-4.664c.9453-.629 1.3789-1.6758 1.1562-2.7852L9.3047 9.3047l8.246 1.6484c1.1095.2227 2.1563-.211 2.7852-1.1562zM25 12c-7.168 0-13 5.832-13 13s5.832 13 13 13 13-5.832 13-13-5.832-13-13-13zm0 2c6.086 0 11 4.914 11 11s-4.914 11-11 11-11-4.914-11-11 4.914-11 11-11z"/>
</svg>
