<?xml version="1.0" standalone="no"?><!DOCTYPE svg PUBLIC "-//W3C//DTD SVG 1.1//EN" "http://www.w3.org/Graphics/SVG/1.1/DTD/svg11.dtd"><svg xmlns:xlink="http://www.w3.org/1999/xlink" viewBox="0 0 50 50" version="1.1" xmlns="http://www.w3.org/2000/svg">
<g id="surface1">
<path style=" " d="M 25 0.09375 L 24.28125 0.78125 L 17.40625 7.6875 C 17.109375 7.929688 16.972656 8.316406 17.058594 8.691406 C 17.144531 9.0625 17.4375 9.355469 17.808594 9.441406 C 18.183594 9.527344 18.570313 9.390625 18.8125 9.09375 L 24 3.9375 L 24 20 C 23.996094 20.359375 24.183594 20.695313 24.496094 20.878906 C 24.808594 21.058594 25.191406 21.058594 25.503906 20.878906 C 25.816406 20.695313 26.003906 20.359375 26 20 L 26 3.9375 L 31.1875 9.09375 C 31.429688 9.390625 31.816406 9.527344 32.191406 9.441406 C 32.5625 9.355469 32.855469 9.0625 32.941406 8.691406 C 33.027344 8.316406 32.890625 7.929688 32.59375 7.6875 L 25.71875 0.78125 Z M 24.90625 27.96875 C 24.863281 27.976563 24.820313 27.988281 24.78125 28 C 24.316406 28.105469 23.988281 28.523438 24 29 L 24 35 C 23.996094 35.359375 24.183594 35.695313 24.496094 35.878906 C 24.808594 36.058594 25.191406 36.058594 25.503906 35.878906 C 25.816406 35.695313 26.003906 35.359375 26 35 L 26 29 C 26.011719 28.710938 25.894531 28.433594 25.6875 28.238281 C 25.476563 28.039063 25.191406 27.941406 24.90625 27.96875 Z M 10.78125 33.875 C 10.390625 33.914063 10.058594 34.175781 9.933594 34.542969 C 9.804688 34.914063 9.90625 35.324219 10.1875 35.59375 L 14.40625 39.8125 C 14.648438 40.109375 15.035156 40.246094 15.410156 40.160156 C 15.78125 40.074219 16.074219 39.78125 16.160156 39.410156 C 16.246094 39.035156 16.109375 38.648438 15.8125 38.40625 L 11.59375 34.1875 C 11.40625 33.988281 11.148438 33.878906 10.875 33.875 C 10.84375 33.875 10.8125 33.875 10.78125 33.875 Z M 39 33.875 C 38.773438 33.90625 38.5625 34.019531 38.40625 34.1875 L 34.1875 38.40625 C 33.890625 38.648438 33.753906 39.035156 33.839844 39.410156 C 33.925781 39.78125 34.21875 40.074219 34.589844 40.160156 C 34.964844 40.246094 35.351563 40.109375 35.59375 39.8125 L 39.8125 35.59375 C 40.109375 35.308594 40.199219 34.867188 40.039063 34.488281 C 39.882813 34.109375 39.503906 33.867188 39.09375 33.875 C 39.0625 33.875 39.03125 33.875 39 33.875 Z M 25 39 C 19.824219 39 15.566406 42.953125 15.0625 48 L 1 48 C 0.449219 48 0 48.445313 0 49 C 0 49.554688 0.449219 50 1 50 L 49 50 C 49.554688 50 50 49.554688 50 49 C 50 48.445313 49.554688 48 49 48 L 34.9375 48 C 34.433594 42.953125 30.175781 39 25 39 Z "/>
</g>
</svg>