<?xml version="1.0" standalone="no"?><!DOCTYPE svg PUBLIC "-//W3C//DTD SVG 1.1//EN" "http://www.w3.org/Graphics/SVG/1.1/DTD/svg11.dtd"><svg xmlns:xlink="http://www.w3.org/1999/xlink" viewBox="0 0 50 50" version="1.1" xmlns="http://www.w3.org/2000/svg">
<g id="surface1">
<path style=" " d="M 25 0 C 24.449219 0 24 0.449219 24 1 L 24 17.09375 L 18.8125 11.90625 C 18.421875 11.515625 17.796875 11.515625 17.40625 11.90625 C 17.015625 12.296875 17.015625 12.921875 17.40625 13.3125 L 25 20.90625 L 32.59375 13.3125 C 32.984375 12.921875 32.984375 12.296875 32.59375 11.90625 C 32.203125 11.515625 31.578125 11.515625 31.1875 11.90625 L 26 17.09375 L 26 1 C 26 0.449219 25.550781 0 25 0 Z M 25 28 C 24.449219 28 24 28.445313 24 29 L 24 35 C 24 35.554688 24.449219 36 25 36 C 25.550781 36 26 35.554688 26 35 L 26 29 C 26 28.445313 25.550781 28 25 28 Z M 10.90625 33.90625 C 10.652344 33.90625 10.382813 33.992188 10.1875 34.1875 C 9.796875 34.578125 9.796875 35.203125 10.1875 35.59375 L 14.40625 39.8125 C 14.601563 40.007813 14.835938 40.09375 15.09375 40.09375 C 15.351563 40.09375 15.617188 40.007813 15.8125 39.8125 C 16.203125 39.421875 16.203125 38.796875 15.8125 38.40625 L 11.59375 34.1875 C 11.398438 33.992188 11.160156 33.90625 10.90625 33.90625 Z M 39.09375 33.90625 C 38.839844 33.90625 38.601563 33.992188 38.40625 34.1875 L 34.1875 38.40625 C 33.796875 38.796875 33.796875 39.421875 34.1875 39.8125 C 34.382813 40.007813 34.652344 40.09375 34.90625 40.09375 C 35.164063 40.09375 35.398438 40.007813 35.59375 39.8125 L 39.8125 35.59375 C 40.203125 35.203125 40.203125 34.578125 39.8125 34.1875 C 39.617188 33.992188 39.347656 33.90625 39.09375 33.90625 Z M 25 39 C 19.824219 39 15.566406 42.953125 15.0625 48 L 1 48 C 0.449219 48 0 48.445313 0 49 C 0 49.554688 0.449219 50 1 50 L 49 50 C 49.554688 50 50 49.554688 50 49 C 50 48.445313 49.554688 48 49 48 L 34.9375 48 C 34.433594 42.953125 30.175781 39 25 39 Z "/>
</g>
</svg>